<?xml version="1.0" standalone="no"?>
<!DOCTYPE svg PUBLIC "-//W3C//DTD SVG 20010904//EN"
 "http://www.w3.org/TR/2001/REC-SVG-20010904/DTD/svg10.dtd">
<svg version="1.0" xmlns="http://www.w3.org/2000/svg"
 width="376.000000pt" height="128.000000pt" viewBox="0 0 376.000000 128.000000"
 preserveAspectRatio="xMidYMid meet">

<g transform="translate(0.000000,128.000000) scale(0.100000,-0.100000)"
fill="#000000" stroke="none">
<path d="M580 990 c-9 -6 -10 -10 -3 -10 6 0 15 5 18 10 8 12 4 12 -15 0z"/>
<path d="M383 775 c0 -8 4 -12 9 -9 5 3 6 10 3 15 -9 13 -12 11 -12 -6z"/>
<path d="M1324 705 c-8 -21 2 -45 19 -45 8 0 20 7 27 15 10 12 10 18 0 30 -7
8 -19 15 -27 15 -7 0 -16 -7 -19 -15z"/>
<path d="M1440 550 l0 -160 25 0 25 0 0 160 0 160 -25 0 -25 0 0 -160z"/>
<path d="M1550 550 l0 -160 25 0 25 0 0 160 0 160 -25 0 -25 0 0 -160z"/>
<path d="M815 678 c-31 -17 -45 -39 -45 -73 0 -39 22 -60 86 -81 62 -21 74
-31 74 -60 0 -47 -91 -59 -105 -14 -4 13 -15 20 -31 20 -56 0 -9 -71 56 -85
44 -10 98 12 115 45 32 61 12 95 -70 125 -65 23 -86 45 -69 73 17 26 70 28 86
3 17 -27 58 -28 58 -2 0 48 -100 79 -155 49z"/>
<path d="M3350 655 c0 -14 -7 -28 -15 -31 -19 -8 -19 -30 0 -38 12 -4 15 -23
14 -86 -1 -51 3 -86 11 -95 17 -20 90 -20 90 0 0 8 -8 15 -19 15 -32 0 -42 24
-39 97 3 66 4 68 31 71 15 2 27 9 27 17 0 8 -12 15 -27 17 -22 2 -29 9 -31 31
-4 37 -42 39 -42 2z"/>
<path d="M1083 611 c-42 -26 -53 -49 -53 -108 0 -55 17 -86 60 -108 87 -45
190 29 177 128 -12 86 -112 133 -184 88z m112 -46 c62 -61 0 -169 -80 -139
-27 11 -47 61 -39 100 12 63 75 84 119 39z"/>
<path d="M1721 617 c-61 -31 -85 -124 -47 -182 40 -61 132 -70 185 -17 l26 27
-22 3 c-13 2 -33 -4 -45 -12 -12 -9 -33 -16 -46 -16 -26 0 -76 45 -67 60 3 6
46 10 96 10 89 0 89 0 89 25 0 84 -95 141 -169 102z m99 -47 c33 -33 24 -40
-50 -40 -67 0 -70 1 -60 20 23 42 78 52 110 20z"/>
<path d="M1975 618 c-73 -39 -57 -97 35 -127 36 -12 56 -24 58 -36 8 -36 -59
-49 -80 -15 -14 22 -58 27 -58 7 0 -8 12 -24 26 -38 36 -34 117 -35 145 0 23
29 25 64 3 82 -9 8 -37 21 -62 30 -53 18 -76 44 -52 59 25 16 59 11 72 -10 14
-21 43 -27 53 -10 4 6 -7 24 -24 40 -32 32 -78 39 -116 18z"/>
<path d="M2220 623 c-30 -12 -50 -37 -50 -63 0 -34 23 -54 78 -71 52 -15 69
-33 52 -54 -18 -21 -57 -19 -77 5 -23 26 -53 26 -53 0 0 -31 57 -62 103 -56
51 6 77 31 77 72 0 37 -15 49 -85 69 -32 10 -40 17 -40 36 0 33 47 39 72 10
20 -24 53 -28 53 -7 0 29 -35 57 -75 61 -22 3 -47 2 -55 -2z"/>
<path d="M2483 615 c-13 -9 -23 -11 -23 -6 0 6 -11 11 -25 11 l-25 0 0 -115 0
-115 25 0 c25 0 25 1 25 80 0 88 17 120 63 120 43 0 57 -28 57 -118 0 -81 0
-82 25 -82 25 0 25 1 25 80 0 89 17 120 64 120 44 0 66 -42 66 -126 0 -67 2
-74 20 -74 19 0 20 7 20 91 0 88 -1 92 -30 121 -27 27 -36 30 -71 25 -22 -3
-49 -13 -60 -23 -18 -16 -20 -16 -38 0 -28 25 -91 31 -118 11z"/>
<path d="M2924 620 c-28 -11 -61 -54 -69 -90 -9 -39 9 -91 41 -121 33 -31 102
-33 133 -5 19 17 21 17 21 3 0 -11 8 -17 25 -17 l25 0 0 115 0 115 -25 0 c-16
0 -25 -6 -25 -16 0 -13 -5 -12 -26 5 -28 22 -64 26 -100 11z m101 -55 c17 -16
25 -35 25 -60 0 -38 -35 -85 -64 -85 -47 0 -86 43 -86 96 0 32 42 74 75 74 14
0 37 -11 50 -25z"/>
<path d="M3240 613 c-17 -12 -25 -13 -28 -5 -2 7 -12 12 -23 12 -18 0 -19 -8
-19 -115 0 -108 1 -115 20 -115 18 0 20 7 21 58 2 95 10 116 47 127 24 7 32
15 32 32 0 27 -17 29 -50 6z"/>
<path d="M1320 505 l0 -115 25 0 25 0 0 115 0 115 -25 0 -25 0 0 -115z"/>
<path d="M347 582 c-15 -16 -15 -19 -2 -19 8 0 13 3 10 5 -3 3 0 11 6 19 17
20 5 16 -14 -5z"/>
<path d="M555 540 c17 -8 16 -9 -10 -11 -16 -1 -39 -1 -50 -1 -15 2 -17 0 -6
-7 7 -5 11 -13 8 -18 -3 -5 0 -10 8 -10 8 0 12 4 10 8 -3 4 2 9 10 13 8 3 15
0 15 -6 0 -7 4 -7 14 1 10 9 16 9 21 1 4 -6 4 -14 1 -17 -3 -4 -6 0 -6 8 0 8
-8 4 -20 -11 -23 -30 -26 -48 -5 -30 10 9 15 9 15 1 0 -19 20 -12 29 11 l8 21
15 -22 c13 -18 17 -19 27 -7 8 10 9 16 1 21 -20 12 -10 24 17 19 15 -3 31 -8
36 -11 5 -3 8 0 5 8 -3 8 -11 14 -19 14 -8 0 -16 2 -19 5 -7 7 -97 30 -113 29
-6 0 -3 -4 8 -9z"/>
<path d="M600 441 c0 -11 4 -22 9 -25 4 -3 6 6 3 19 -5 30 -12 33 -12 6z"/>
<path d="M575 371 c-11 -5 -27 -6 -35 -3 -16 6 -15 4 14 -18 17 -13 18 -13 11
-1 -6 11 -4 13 8 8 10 -4 24 -10 32 -13 8 -3 15 -2 15 4 0 5 8 9 18 9 33 0 42
3 42 14 0 5 -6 7 -12 3 -18 -11 -79 -13 -72 -3 6 10 6 10 -21 0z"/>
</g>
</svg>
